# Blender v2.79 (sub 0) OBJ File: 'base_giro.blend'
# www.blender.org
mtllib base_giro.mtl
o Ride_Surface
v 7.860236 0.159009 0.838574
v 7.752292 0.159009 1.578136
v 7.576549 0.159008 2.293065
v 7.336415 0.159008 2.979952
v 7.035299 0.159008 3.635390
v 6.676608 0.159008 4.255971
v 6.263750 0.159008 4.838288
v 5.800132 0.159008 5.378932
v 5.289162 0.159008 5.874496
v 4.734248 0.159008 6.321573
v 4.138798 0.159008 6.716755
v 3.506219 0.159008 7.056633
v 2.839919 0.159008 7.337800
v 2.143306 0.159008 7.556848
v 1.419788 0.159008 7.710371
v 0.924178 0.159008 7.774632
v 0.163389 0.159008 7.811371
v -0.597399 0.159008 7.774632
v -1.336961 0.159008 7.666687
v -2.051889 0.159008 7.490945
v -2.738776 0.159008 7.250811
v -3.394215 0.159008 6.949695
v -4.014796 0.159008 6.591004
v -4.597113 0.159008 6.178145
v -5.137757 0.159008 5.714528
v -5.633321 0.159008 5.203557
v -6.080398 0.159008 4.648644
v -6.475580 0.159008 4.053194
v -6.815457 0.159008 3.420615
v -7.096625 0.159008 2.754315
v -7.315673 0.159009 2.057702
v -7.469195 0.159009 1.334184
v -7.533457 0.159009 0.838574
v -7.570196 0.159009 0.077786
v -7.533457 0.159009 -0.683002
v -7.425512 0.159009 -1.422565
v -7.249770 0.159009 -2.137493
v -7.009636 0.159009 -2.824380
v -6.708520 0.159009 -3.479818
v -6.349829 0.159010 -4.100400
v -5.936970 0.159010 -4.682717
v -5.473352 0.159010 -5.223361
v -4.962382 0.159010 -5.718925
v -4.407469 0.159010 -6.166002
v -3.812019 0.159010 -6.561184
v -3.179440 0.159010 -6.901062
v -2.513140 0.159010 -7.182229
v -1.816527 0.159010 -7.401277
v -1.093009 0.159010 -7.554800
v -0.597399 0.159010 -7.619061
v 0.163389 0.159010 -7.655800
v 0.924178 0.159010 -7.619061
v 1.663740 0.159010 -7.511117
v 2.378668 0.159010 -7.335374
v 3.065555 0.159010 -7.095240
v 3.720994 0.159010 -6.794124
v 4.341575 0.159010 -6.435433
v 4.923892 0.159010 -6.022574
v 5.464536 0.159010 -5.558957
v 5.960101 0.159010 -5.047987
v 6.407177 0.159010 -4.493073
v 6.802359 0.159009 -3.897623
v 7.142237 0.159009 -3.265043
v 7.423404 0.159009 -2.598744
v 7.642452 0.159009 -1.902131
v 7.795975 0.159009 -1.178613
v 7.860236 0.159009 -0.683002
v 7.896976 0.159009 0.077786
v 7.860236 0.236345 -0.683002
v 7.795975 0.236345 -1.178613
v 7.642452 0.236345 -1.902131
v 7.423404 0.236345 -2.598744
v 7.142237 0.236345 -3.265043
v 6.802359 0.236345 -3.897623
v 6.407177 0.236345 -4.493073
v 5.960101 0.236346 -5.047987
v 5.464536 0.236346 -5.558957
v 4.923892 0.236346 -6.022574
v 4.341575 0.236346 -6.435433
v 3.720994 0.236346 -6.794124
v 3.065555 0.236346 -7.095240
v 2.378668 0.236346 -7.335374
v 1.663740 0.236346 -7.511117
v 0.924178 0.236346 -7.619061
v 0.163389 0.236346 -7.655800
v -0.597399 0.236346 -7.619061
v -1.093009 0.236346 -7.554800
v -1.816527 0.236346 -7.401277
v -2.513140 0.236346 -7.182229
v -3.179440 0.236346 -6.901062
v -3.812019 0.236346 -6.561184
v -4.407469 0.236346 -6.166002
v -4.962382 0.236346 -5.718925
v -5.473352 0.236346 -5.223361
v -5.936970 0.236345 -4.682717
v -6.349829 0.236345 -4.100400
v -6.708520 0.236345 -3.479818
v -7.009636 0.236345 -2.824380
v -7.249770 0.236345 -2.137493
v -7.425512 0.236345 -1.422565
v -7.533457 0.236345 -0.683002
v -7.570196 0.236345 0.077786
v -7.533457 0.236345 0.838574
v -7.469195 0.236345 1.334184
v -7.315673 0.236344 2.057702
v -7.096625 0.236344 2.754315
v -6.815457 0.236344 3.420615
v -6.475580 0.236344 4.053194
v -6.080398 0.236344 4.648644
v -5.633321 0.236344 5.203557
v -5.137757 0.236344 5.714528
v -4.597113 0.236344 6.178145
v -4.014796 0.236344 6.591004
v -3.394215 0.236344 6.949695
v -2.738776 0.236344 7.250811
v -2.051889 0.236344 7.490945
v -1.336961 0.236343 7.666687
v -0.597399 0.236343 7.774632
v 0.163389 0.236343 7.811371
v 0.924178 0.236343 7.774632
v 1.419788 0.236343 7.710371
v 2.143306 0.236343 7.556848
v 2.839919 0.236344 7.337800
v 3.506219 0.236344 7.056633
v 4.138798 0.236344 6.716755
v 4.734248 0.236344 6.321573
v 5.289162 0.236344 5.874496
v 5.800132 0.236344 5.378932
v 6.263750 0.236344 4.838288
v 6.676608 0.236344 4.255971
v 7.035299 0.236344 3.635390
v 7.336415 0.236344 2.979952
v 7.576549 0.236344 2.293065
v 7.752292 0.236344 1.578136
v 7.860236 0.236345 0.838574
v 7.896976 0.236345 0.077786
v 7.896976 0.236345 0.077786
v 7.860236 0.236345 0.838574
v 7.860236 0.159009 0.838574
v 7.896976 0.159009 0.077786
v 7.752292 0.236344 1.578136
v 7.752292 0.159009 1.578136
v 7.576549 0.236344 2.293065
v 7.576549 0.159008 2.293065
v 7.336415 0.236344 2.979952
v 7.336415 0.159008 2.979952
v 7.035299 0.236344 3.635390
v 7.035299 0.159008 3.635390
v 6.676608 0.236344 4.255971
v 6.676608 0.159008 4.255971
v 6.263750 0.236344 4.838288
v 6.263750 0.159008 4.838288
v 5.800132 0.236344 5.378932
v 5.800132 0.159008 5.378932
v 5.289162 0.236344 5.874496
v 5.289162 0.159008 5.874496
v 4.734248 0.236344 6.321573
v 4.734248 0.159008 6.321573
v 4.138798 0.236344 6.716755
v 4.138798 0.159008 6.716755
v 3.506219 0.236344 7.056633
v 3.506219 0.159008 7.056633
v 2.839919 0.236344 7.337800
v 2.839919 0.159008 7.337800
v 2.143306 0.236343 7.556848
v 2.143306 0.159008 7.556848
v 1.419788 0.236343 7.710371
v 1.419788 0.159008 7.710371
v 0.924178 0.236343 7.774632
v 0.924178 0.159008 7.774632
v 0.163389 0.236343 7.811371
v 0.163389 0.159008 7.811371
v -0.597399 0.236343 7.774632
v -0.597399 0.159008 7.774632
v -1.336961 0.236343 7.666687
v -1.336961 0.159008 7.666687
v -2.051889 0.236344 7.490945
v -2.051889 0.159008 7.490945
v -2.738776 0.236344 7.250811
v -2.738776 0.159008 7.250811
v -3.394215 0.236344 6.949695
v -3.394215 0.159008 6.949695
v -4.014796 0.236344 6.591004
v -4.014796 0.159008 6.591004
v -4.597113 0.236344 6.178145
v -4.597113 0.159008 6.178145
v -5.137757 0.236344 5.714528
v -5.137757 0.159008 5.714528
v -5.633321 0.236344 5.203557
v -5.633321 0.159008 5.203557
v -6.080398 0.236344 4.648644
v -6.080398 0.159008 4.648644
v -6.475580 0.236344 4.053194
v -6.475580 0.159008 4.053194
v -6.815457 0.236344 3.420615
v -6.815457 0.159008 3.420615
v -7.096625 0.236344 2.754315
v -7.096625 0.159008 2.754315
v -7.315673 0.236344 2.057702
v -7.315673 0.159009 2.057702
v -7.469195 0.236345 1.334184
v -7.469195 0.159009 1.334184
v -7.533457 0.236345 0.838574
v -7.533457 0.159009 0.838574
v -7.570196 0.236345 0.077786
v -7.570196 0.159009 0.077786
v -7.533457 0.236345 -0.683002
v -7.533457 0.159009 -0.683002
v -7.425512 0.236345 -1.422565
v -7.425512 0.159009 -1.422565
v -7.249770 0.236345 -2.137493
v -7.249770 0.159009 -2.137493
v -7.009636 0.236345 -2.824380
v -7.009636 0.159009 -2.824380
v -6.708520 0.236345 -3.479818
v -6.708520 0.159009 -3.479818
v -6.349829 0.236345 -4.100400
v -6.349829 0.159010 -4.100400
v -5.936970 0.236345 -4.682717
v -5.936970 0.159010 -4.682717
v -5.473352 0.236346 -5.223361
v -5.473352 0.159010 -5.223361
v -4.962382 0.236346 -5.718925
v -4.962382 0.159010 -5.718925
v -4.407469 0.236346 -6.166002
v -4.407469 0.159010 -6.166002
v -3.812019 0.236346 -6.561184
v -3.812019 0.159010 -6.561184
v -3.179440 0.236346 -6.901062
v -3.179440 0.159010 -6.901062
v -2.513140 0.236346 -7.182229
v -2.513140 0.159010 -7.182229
v -1.816527 0.236346 -7.401277
v -1.816527 0.159010 -7.401277
v -1.093009 0.236346 -7.554800
v -1.093009 0.159010 -7.554800
v -0.597399 0.236346 -7.619061
v -0.597399 0.159010 -7.619061
v 0.163389 0.236346 -7.655800
v 0.163389 0.159010 -7.655800
v 0.924178 0.236346 -7.619061
v 0.924178 0.159010 -7.619061
v 1.663740 0.236346 -7.511117
v 1.663740 0.159010 -7.511117
v 2.378668 0.236346 -7.335374
v 2.378668 0.159010 -7.335374
v 3.065555 0.236346 -7.095240
v 3.065555 0.159010 -7.095240
v 3.720994 0.236346 -6.794124
v 3.720994 0.159010 -6.794124
v 4.341575 0.236346 -6.435433
v 4.341575 0.159010 -6.435433
v 4.923892 0.236346 -6.022574
v 4.923892 0.159010 -6.022574
v 5.464536 0.236346 -5.558957
v 5.464536 0.159010 -5.558957
v 5.960101 0.236346 -5.047987
v 5.960101 0.159010 -5.047987
v 6.407177 0.236345 -4.493073
v 6.407177 0.159010 -4.493073
v 6.802359 0.236345 -3.897623
v 6.802359 0.159009 -3.897623
v 7.142237 0.236345 -3.265043
v 7.142237 0.159009 -3.265043
v 7.423404 0.236345 -2.598744
v 7.423404 0.159009 -2.598744
v 7.642452 0.236345 -1.902131
v 7.642452 0.159009 -1.902131
v 7.795975 0.236345 -1.178613
v 7.795975 0.159009 -1.178613
v 7.860236 0.236345 -0.683002
v 7.860236 0.159009 -0.683002
vt 0.884124 0.207062
vt 0.852141 0.171637
vt 0.817404 0.139735
vt 0.780215 0.111427
vt 0.740878 0.086777
vt 0.699696 0.065856
vt 0.656973 0.048729
vt 0.613010 0.035466
vt 0.568111 0.026131
vt 0.522581 0.020796
vt 0.476721 0.019526
vt 0.430834 0.022390
vt 0.385223 0.029456
vt 0.340192 0.040789
vt 0.296044 0.056459
vt 0.267251 0.069348
vt 0.225248 0.092396
vt 0.185848 0.119315
vt 0.150108 0.149290
vt 0.118088 0.182028
vt 0.089850 0.217238
vt 0.065455 0.254629
vt 0.044965 0.293909
vt 0.028443 0.334787
vt 0.015948 0.376971
vt 0.007544 0.420170
vt 0.003290 0.464092
vt 0.003249 0.508445
vt 0.007484 0.552940
vt 0.016054 0.597283
vt 0.029021 0.641183
vt 0.046448 0.684350
vt 0.060573 0.712576
vt 0.085568 0.753871
vt 0.114494 0.792754
vt 0.146478 0.828179
vt 0.181215 0.860081
vt 0.218405 0.888389
vt 0.257741 0.913038
vt 0.298923 0.933960
vt 0.341647 0.951087
vt 0.385608 0.964351
vt 0.430507 0.973685
vt 0.476038 0.979020
vt 0.521899 0.980290
vt 0.567786 0.977426
vt 0.613396 0.970360
vt 0.658427 0.959027
vt 0.702575 0.943357
vt 0.731367 0.930468
vt 0.773371 0.907421
vt 0.812770 0.880501
vt 0.848512 0.850526
vt 0.880531 0.817788
vt 0.908770 0.782578
vt 0.933164 0.745187
vt 0.953653 0.705906
vt 0.970177 0.665029
vt 0.982670 0.622845
vt 0.991075 0.579646
vt 0.995329 0.535724
vt 0.995369 0.491370
vt 0.991135 0.446876
vt 0.982566 0.402533
vt 0.969597 0.358633
vt 0.952171 0.315466
vt 0.938046 0.287240
vt 0.913050 0.245945
vt 0.937924 0.291420
vt 0.952050 0.319646
vt 0.969476 0.362812
vt 0.982444 0.406713
vt 0.991014 0.451056
vt 0.995248 0.495550
vt 0.995207 0.539905
vt 0.990954 0.583826
vt 0.982549 0.627025
vt 0.970055 0.669210
vt 0.953532 0.710087
vt 0.933043 0.749367
vt 0.908648 0.786758
vt 0.880410 0.821969
vt 0.848390 0.854707
vt 0.812649 0.884681
vt 0.773250 0.911600
vt 0.731246 0.934648
vt 0.702454 0.947537
vt 0.658306 0.963208
vt 0.613274 0.974541
vt 0.567665 0.981605
vt 0.521778 0.984470
vt 0.475917 0.983200
vt 0.430386 0.977864
vt 0.385487 0.968531
vt 0.341525 0.955267
vt 0.298802 0.938141
vt 0.257620 0.917219
vt 0.218283 0.892570
vt 0.181094 0.864260
vt 0.146357 0.832360
vt 0.114373 0.796934
vt 0.085447 0.758052
vt 0.060452 0.716756
vt 0.046326 0.688531
vt 0.028900 0.645364
vt 0.015933 0.601464
vt 0.007362 0.557121
vt 0.003128 0.512626
vt 0.003169 0.468272
vt 0.007422 0.424350
vt 0.015827 0.381151
vt 0.028322 0.338967
vt 0.044844 0.298089
vt 0.065334 0.258810
vt 0.089729 0.221419
vt 0.117966 0.186208
vt 0.149987 0.153470
vt 0.185727 0.123495
vt 0.225126 0.096576
vt 0.267130 0.073529
vt 0.295923 0.060639
vt 0.340071 0.044969
vt 0.385102 0.033635
vt 0.430712 0.026571
vt 0.476600 0.023707
vt 0.522460 0.024976
vt 0.567990 0.030312
vt 0.612889 0.039645
vt 0.656852 0.052909
vt 0.699574 0.070036
vt 0.740756 0.090958
vt 0.780094 0.115607
vt 0.817282 0.143915
vt 0.852019 0.175817
vt 0.884003 0.211242
vt 0.912929 0.250125
vt 0.912929 0.250125
vt 0.884003 0.211242
vt 0.884124 0.207062
vt 0.913050 0.245945
vt 0.852019 0.175817
vt 0.852141 0.171637
vt 0.817282 0.143915
vt 0.817404 0.139735
vt 0.780094 0.115607
vt 0.780215 0.111427
vt 0.740756 0.090958
vt 0.740878 0.086777
vt 0.699574 0.070036
vt 0.699696 0.065856
vt 0.656852 0.052909
vt 0.656973 0.048729
vt 0.612889 0.039645
vt 0.613010 0.035466
vt 0.567990 0.030312
vt 0.568111 0.026131
vt 0.522460 0.024976
vt 0.522581 0.020796
vt 0.476600 0.023707
vt 0.476721 0.019526
vt 0.430712 0.026571
vt 0.430834 0.022390
vt 0.385102 0.033635
vt 0.385223 0.029456
vt 0.340071 0.044969
vt 0.340192 0.040789
vt 0.295923 0.060639
vt 0.296044 0.056459
vt 0.267130 0.073529
vt 0.267251 0.069348
vt 0.225126 0.096576
vt 0.225248 0.092396
vt 0.185727 0.123495
vt 0.185848 0.119315
vt 0.149987 0.153470
vt 0.150108 0.149290
vt 0.117966 0.186208
vt 0.118088 0.182028
vt 0.089729 0.221419
vt 0.089850 0.217238
vt 0.065334 0.258810
vt 0.065455 0.254629
vt 0.044844 0.298089
vt 0.044965 0.293909
vt 0.028322 0.338967
vt 0.028443 0.334787
vt 0.015827 0.381151
vt 0.015948 0.376971
vt 0.007422 0.424350
vt 0.007544 0.420170
vt 0.003169 0.468272
vt 0.003290 0.464092
vt 0.003128 0.512626
vt 0.003249 0.508445
vt 0.007362 0.557121
vt 0.007484 0.552940
vt 0.015933 0.601464
vt 0.016054 0.597283
vt 0.028900 0.645364
vt 0.029021 0.641183
vt 0.046326 0.688531
vt 0.046448 0.684350
vt 0.060452 0.716756
vt 0.060573 0.712576
vt 0.085447 0.758052
vt 0.085568 0.753871
vt 0.114373 0.796934
vt 0.114494 0.792754
vt 0.146357 0.832360
vt 0.146478 0.828179
vt 0.181094 0.864260
vt 0.181215 0.860081
vt 0.218283 0.892570
vt 0.218405 0.888389
vt 0.257620 0.917219
vt 0.257741 0.913038
vt 0.298802 0.938141
vt 0.298923 0.933960
vt 0.341525 0.955267
vt 0.341647 0.951087
vt 0.385487 0.968531
vt 0.385608 0.964351
vt 0.430386 0.977864
vt 0.430507 0.973685
vt 0.475917 0.983200
vt 0.476038 0.979020
vt 0.521778 0.984470
vt 0.521899 0.980290
vt 0.567665 0.981605
vt 0.567786 0.977426
vt 0.613274 0.974541
vt 0.613396 0.970360
vt 0.658306 0.963208
vt 0.658427 0.959027
vt 0.702454 0.947537
vt 0.702575 0.943357
vt 0.731246 0.934648
vt 0.731367 0.930468
vt 0.773250 0.911600
vt 0.773371 0.907421
vt 0.812649 0.884681
vt 0.812770 0.880501
vt 0.848390 0.854707
vt 0.848512 0.850526
vt 0.880410 0.821969
vt 0.880531 0.817788
vt 0.908648 0.786758
vt 0.908770 0.782578
vt 0.933043 0.749367
vt 0.933164 0.745187
vt 0.953532 0.710087
vt 0.953653 0.705906
vt 0.970055 0.669210
vt 0.970177 0.665029
vt 0.982549 0.627025
vt 0.982670 0.622845
vt 0.990954 0.583826
vt 0.991075 0.579646
vt 0.995207 0.539905
vt 0.995329 0.535724
vt 0.995248 0.495550
vt 0.995369 0.491370
vt 0.991014 0.451056
vt 0.991135 0.446876
vt 0.982444 0.406713
vt 0.982566 0.402533
vt 0.969476 0.362812
vt 0.969597 0.358633
vt 0.952050 0.319646
vt 0.952171 0.315466
vt 0.937924 0.291420
vt 0.938046 0.287240
vn 0.0000 -1.0000 -0.0000
vn 0.0000 1.0000 0.0000
vn 0.9988 0.0000 0.0482
vn 0.9895 0.0000 0.1444
vn 0.9711 0.0000 0.2387
vn 0.9440 0.0000 0.3300
vn 0.9087 0.0000 0.4175
vn 0.8658 0.0000 0.5004
vn 0.8158 0.0000 0.5784
vn 0.7591 0.0000 0.6510
vn 0.6962 0.0000 0.7178
vn 0.6274 0.0000 0.7787
vn 0.5530 0.0000 0.8332
vn 0.4733 0.0000 0.8809
vn 0.3888 0.0000 0.9213
vn 0.3000 0.0000 0.9539
vn 0.2076 0.0000 0.9782
vn 0.1286 0.0000 0.9917
vn 0.0482 0.0000 0.9988
vn -0.0482 0.0000 0.9988
vn -0.1444 0.0000 0.9895
vn -0.2387 0.0000 0.9711
vn -0.3300 0.0000 0.9440
vn -0.4175 0.0000 0.9087
vn -0.5004 0.0000 0.8658
vn -0.5784 0.0000 0.8158
vn -0.6510 0.0000 0.7591
vn -0.7178 0.0000 0.6962
vn -0.7787 0.0000 0.6274
vn -0.8332 0.0000 0.5530
vn -0.8809 0.0000 0.4733
vn -0.9213 0.0000 0.3888
vn -0.9539 0.0000 0.3000
vn -0.9782 0.0000 0.2076
vn -0.9917 0.0000 0.1286
vn -0.9988 0.0000 0.0482
vn -0.9988 0.0000 -0.0482
vn -0.9895 0.0000 -0.1444
vn -0.9711 0.0000 -0.2387
vn -0.9440 0.0000 -0.3300
vn -0.9087 0.0000 -0.4175
vn -0.8658 0.0000 -0.5004
vn -0.8158 0.0000 -0.5784
vn -0.7591 0.0000 -0.6510
vn -0.6962 0.0000 -0.7178
vn -0.6274 0.0000 -0.7787
vn -0.5530 0.0000 -0.8332
vn -0.4733 0.0000 -0.8809
vn -0.3888 0.0000 -0.9213
vn -0.3000 0.0000 -0.9539
vn -0.2076 0.0000 -0.9782
vn -0.1286 0.0000 -0.9917
vn -0.0482 0.0000 -0.9988
vn 0.0482 0.0000 -0.9988
vn 0.1444 0.0000 -0.9895
vn 0.2387 0.0000 -0.9711
vn 0.3300 0.0000 -0.9440
vn 0.4175 0.0000 -0.9087
vn 0.5004 0.0000 -0.8658
vn 0.5784 0.0000 -0.8158
vn 0.6510 0.0000 -0.7591
vn 0.7178 0.0000 -0.6962
vn 0.7787 0.0000 -0.6274
vn 0.8332 0.0000 -0.5530
vn 0.8809 0.0000 -0.4733
vn 0.9213 0.0000 -0.3888
vn 0.9539 0.0000 -0.3000
vn 0.9782 0.0000 -0.2076
vn 0.9917 0.0000 -0.1286
vn 0.9988 0.0000 -0.0482
usemtl Mat
s off
f 1/1/1 2/2/1 3/3/1 4/4/1 5/5/1 6/6/1 7/7/1 8/8/1 9/9/1 10/10/1 11/11/1 12/12/1 13/13/1 14/14/1 15/15/1 16/16/1 17/17/1 18/18/1 19/19/1 20/20/1 21/21/1 22/22/1 23/23/1 24/24/1 25/25/1 26/26/1 27/27/1 28/28/1 29/29/1 30/30/1 31/31/1 32/32/1 33/33/1 34/34/1 35/35/1 36/36/1 37/37/1 38/38/1 39/39/1 40/40/1 41/41/1 42/42/1 43/43/1 44/44/1 45/45/1 46/46/1 47/47/1 48/48/1 49/49/1 50/50/1 51/51/1 52/52/1 53/53/1 54/54/1 55/55/1 56/56/1 57/57/1 58/58/1 59/59/1 60/60/1 61/61/1 62/62/1 63/63/1 64/64/1 65/65/1 66/66/1 67/67/1 68/68/1
f 69/69/2 70/70/2 71/71/2 72/72/2 73/73/2 74/74/2 75/75/2 76/76/2 77/77/2 78/78/2 79/79/2 80/80/2 81/81/2 82/82/2 83/83/2 84/84/2 85/85/2 86/86/2 87/87/2 88/88/2 89/89/2 90/90/2 91/91/2 92/92/2 93/93/2 94/94/2 95/95/2 96/96/2 97/97/2 98/98/2 99/99/2 100/100/2 101/101/2 102/102/2 103/103/2 104/104/2 105/105/2 106/106/2 107/107/2 108/108/2 109/109/2 110/110/2 111/111/2 112/112/2 113/113/2 114/114/2 115/115/2 116/116/2 117/117/2 118/118/2 119/119/2 120/120/2 121/121/2 122/122/2 123/123/2 124/124/2 125/125/2 126/126/2 127/127/2 128/128/2 129/129/2 130/130/2 131/131/2 132/132/2 133/133/2 134/134/2 135/135/2 136/136/2
f 137/137/3 138/138/3 139/139/3 140/140/3
f 138/138/4 141/141/4 142/142/4 139/139/4
f 141/141/5 143/143/5 144/144/5 142/142/5
f 143/143/6 145/145/6 146/146/6 144/144/6
f 145/145/7 147/147/7 148/148/7 146/146/7
f 147/147/8 149/149/8 150/150/8 148/148/8
f 149/149/9 151/151/9 152/152/9 150/150/9
f 151/151/10 153/153/10 154/154/10 152/152/10
f 153/153/11 155/155/11 156/156/11 154/154/11
f 155/155/12 157/157/12 158/158/12 156/156/12
f 157/157/13 159/159/13 160/160/13 158/158/13
f 159/159/14 161/161/14 162/162/14 160/160/14
f 161/161/15 163/163/15 164/164/15 162/162/15
f 163/163/16 165/165/16 166/166/16 164/164/16
f 165/165/17 167/167/17 168/168/17 166/166/17
f 167/167/18 169/169/18 170/170/18 168/168/18
f 169/169/19 171/171/19 172/172/19 170/170/19
f 171/171/20 173/173/20 174/174/20 172/172/20
f 173/173/21 175/175/21 176/176/21 174/174/21
f 175/175/22 177/177/22 178/178/22 176/176/22
f 177/177/23 179/179/23 180/180/23 178/178/23
f 179/179/24 181/181/24 182/182/24 180/180/24
f 181/181/25 183/183/25 184/184/25 182/182/25
f 183/183/26 185/185/26 186/186/26 184/184/26
f 185/185/27 187/187/27 188/188/27 186/186/27
f 187/187/28 189/189/28 190/190/28 188/188/28
f 189/189/29 191/191/29 192/192/29 190/190/29
f 191/191/30 193/193/30 194/194/30 192/192/30
f 193/193/31 195/195/31 196/196/31 194/194/31
f 195/195/32 197/197/32 198/198/32 196/196/32
f 197/197/33 199/199/33 200/200/33 198/198/33
f 199/199/34 201/201/34 202/202/34 200/200/34
f 201/201/35 203/203/35 204/204/35 202/202/35
f 203/203/36 205/205/36 206/206/36 204/204/36
f 205/205/37 207/207/37 208/208/37 206/206/37
f 207/207/38 209/209/38 210/210/38 208/208/38
f 209/209/39 211/211/39 212/212/39 210/210/39
f 211/211/40 213/213/40 214/214/40 212/212/40
f 213/213/41 215/215/41 216/216/41 214/214/41
f 215/215/42 217/217/42 218/218/42 216/216/42
f 217/217/43 219/219/43 220/220/43 218/218/43
f 219/219/44 221/221/44 222/222/44 220/220/44
f 221/221/45 223/223/45 224/224/45 222/222/45
f 223/223/46 225/225/46 226/226/46 224/224/46
f 225/225/47 227/227/47 228/228/47 226/226/47
f 227/227/48 229/229/48 230/230/48 228/228/48
f 229/229/49 231/231/49 232/232/49 230/230/49
f 231/231/50 233/233/50 234/234/50 232/232/50
f 233/233/51 235/235/51 236/236/51 234/234/51
f 235/235/52 237/237/52 238/238/52 236/236/52
f 237/237/53 239/239/53 240/240/53 238/238/53
f 239/239/54 241/241/54 242/242/54 240/240/54
f 241/241/55 243/243/55 244/244/55 242/242/55
f 243/243/56 245/245/56 246/246/56 244/244/56
f 245/245/57 247/247/57 248/248/57 246/246/57
f 247/247/58 249/249/58 250/250/58 248/248/58
f 249/249/59 251/251/59 252/252/59 250/250/59
f 251/251/60 253/253/60 254/254/60 252/252/60
f 253/253/61 255/255/61 256/256/61 254/254/61
f 255/255/62 257/257/62 258/258/62 256/256/62
f 257/257/63 259/259/63 260/260/63 258/258/63
f 259/259/64 261/261/64 262/262/64 260/260/64
f 261/261/65 263/263/65 264/264/65 262/262/65
f 263/263/66 265/265/66 266/266/66 264/264/66
f 265/265/67 267/267/67 268/268/67 266/266/67
f 267/267/68 269/269/68 270/270/68 268/268/68
f 269/269/69 271/271/69 272/272/69 270/270/69
f 271/271/70 137/137/70 140/140/70 272/272/70
o Cube
v 0.202057 0.120341 0.039118
v 0.202057 0.120341 0.116454
v 0.124722 0.120341 0.116454
v 0.124722 0.120341 0.039118
v 0.202057 0.197677 0.039118
v 0.202057 0.197677 0.116454
v 0.124722 0.197677 0.116454
v 0.124722 0.197677 0.039118
vn 0.0000 -1.0000 0.0000
vn 0.0000 1.0000 0.0000
vn 1.0000 0.0000 0.0000
vn -0.0000 -0.0000 1.0000
vn -1.0000 -0.0000 -0.0000
vn 0.0000 0.0000 -1.0000
usemtl Material
s off
f 273//71 274//71 275//71 276//71
f 277//72 280//72 279//72 278//72
f 273//73 277//73 278//73 274//73
f 274//74 278//74 279//74 275//74
f 275//75 279//75 280//75 276//75
f 277//76 273//76 276//76 280//76
