# Blender v2.79 (sub 0) OBJ File: 'bote.blend'
# www.blender.org
mtllib bote.mtl
o polySurface3
v -1.671168 -0.000000 1.562757
v -1.504935 -0.000000 1.651674
v -1.556261 0.303175 1.770766
v -1.728158 0.303175 1.675440
v -1.728158 0.303176 -1.673449
v -1.556261 0.303176 -1.768775
v -1.504935 0.000000 -1.649683
v -1.671168 0.000000 -1.560773
v -1.774908 -0.000000 1.457221
v -1.598370 -0.000000 1.540128
v 1.678380 -0.000000 1.562757
v 1.782120 -0.000000 1.457221
v 1.842637 0.303175 1.562286
v 1.735370 0.303175 1.675440
v -1.835424 0.303175 1.562286
v -1.700380 6.525085 1.934278
v -1.888156 6.525085 1.830146
v -2.005329 6.525085 1.706536
v -1.888156 6.525086 -1.828153
v -1.700380 6.525086 -1.932284
v 2.012542 6.525085 1.706536
v 1.895369 6.525085 1.830146
v 1.563474 0.303176 -1.768775
v 1.707592 6.525086 -1.932284
v 1.895369 6.525086 -1.828153
v 1.735370 0.303176 -1.673449
v 1.512140 0.000000 -1.649683
v 1.678380 0.000000 -1.560773
v 1.512140 -0.000000 1.651674
v 1.605583 -0.000000 1.540128
v 1.563474 0.303175 1.770766
v 1.707592 6.525085 1.934278
v -1.835424 0.303176 -1.560302
v -2.005329 6.525086 -1.704550
v -1.774908 0.000000 -1.455237
v -1.598370 0.000000 -1.538136
v 1.605583 0.000000 -1.538136
v 1.782120 0.000000 -1.455237
v 1.842637 0.303176 -1.560302
v 2.012542 6.525086 -1.704550
v -2.266345 6.745672 2.104552
v -2.041029 6.745672 2.224303
v -2.110177 6.745672 2.074065
v -2.343111 6.745672 1.962403
v 2.048241 6.745672 2.224310
v 2.273557 6.745672 2.104552
v 2.350323 6.745672 1.962403
v 2.117382 6.745672 2.074065
v 2.117382 6.745673 -2.072079
v 2.350323 6.745673 -1.960417
v 2.273557 6.745673 -2.102565
v 2.048241 6.745673 -2.495121
v -2.110177 6.745673 -2.072079
v -2.041029 6.745673 -2.495121
v -2.343111 6.745673 -1.960409
v -2.266345 6.745673 -2.102558
v -0.628104 7.382430 0.620545
v 0.635316 7.382430 0.620545
v 0.635316 7.382430 -0.618551
v -0.628104 7.382430 -0.618551
v -2.266345 6.566521 2.104551
v -2.041029 6.566521 2.224302
v -2.343111 6.566521 1.962403
v 2.048241 6.566521 2.224310
v 2.273557 6.566521 2.104551
v 2.350323 6.566521 1.962403
v 2.350323 6.566522 -1.960417
v 2.273557 6.566522 -2.102566
v 2.048241 6.566522 -2.495121
v -2.041029 6.566522 -2.495121
v -2.266345 6.566522 -2.102558
v -2.343111 6.566522 -1.960409
v -2.001520 6.566521 1.859134
v -1.802490 6.566521 1.964916
v -2.069329 6.566521 1.733575
v 1.809703 6.566521 1.964923
v 2.008732 6.566521 1.859141
v 2.076541 6.566521 1.733575
v 2.076541 6.566522 -1.731582
v 2.008732 6.566522 -1.857147
v 1.809703 6.566522 -1.962929
v -1.802490 6.566522 -1.962929
v -2.001520 6.566522 -1.857147
v -2.069329 6.566522 -1.731582
v -2.001520 6.386217 1.859134
v -1.802490 6.386217 1.964916
v -2.069329 6.386217 1.733575
v 1.809703 6.386217 1.964923
v 2.008732 6.386217 1.859141
v 2.076541 6.386217 1.733575
v 2.076541 6.386218 -1.731582
v 2.008732 6.386218 -1.857147
v 1.809703 6.386218 -1.962929
v -1.802490 6.386218 -1.962929
v -2.001520 6.386218 -1.857147
v -2.069329 6.386218 -1.731582
v -1.834425 6.386217 1.704291
v -1.651978 6.386217 1.801260
v -1.896585 6.386217 1.589189
v 1.659191 6.386217 1.801260
v 1.841637 6.386217 1.704291
v 1.903798 6.386217 1.589189
v 1.903798 6.386218 -1.587203
v 1.841637 6.386218 -1.702305
v 1.659191 6.386218 -1.799274
v -1.651978 6.386218 -1.799267
v -1.834425 6.386218 -1.702298
v -1.896585 6.386218 -1.587203
v 2.061146 6.916163 2.018908
v -2.053933 6.916163 2.018908
v 2.061146 6.916164 -2.016921
v -2.053933 6.916164 -2.016921
v 1.615344 7.038528 1.581694
v -1.608132 7.038528 1.581694
v 1.615344 7.038529 -1.579708
v -1.608132 7.038529 -1.579708
v 0.746797 7.256524 0.729875
v -0.739585 7.256524 0.729875
v 0.746797 7.256524 -0.727881
v -0.739585 7.256524 -0.727881
vt 0.754869 0.006155
vt 0.765233 0.006155
vt 0.765233 0.029367
vt 0.754869 0.029367
vt 0.500333 0.029367
vt 0.487928 0.029367
vt 0.487928 0.006155
vt 0.500333 0.006155
vt -0.029801 0.256964
vt -0.024036 0.245256
vt -0.016281 0.239059
vt -0.022463 0.250084
vt 0.989318 0.006155
vt 0.999188 0.006155
vt 0.999188 0.029367
vt 0.989318 0.029367
vt 0.745008 0.006155
vt 0.745008 0.029367
vt 0.765233 0.483334
vt 0.754869 0.483334
vt 0.745008 0.483334
vt 0.500333 0.483334
vt 0.487928 0.483334
vt 0.999188 0.483334
vt 0.989318 0.483334
vt 0.261267 0.029367
vt 0.261267 0.483334
vt 0.250406 0.483334
vt 0.250406 0.029367
vt 0.261267 0.006155
vt 0.250406 0.006155
vt -0.016281 0.038962
vt -0.024036 0.032764
vt -0.029801 0.021056
vt -0.022463 0.027936
vt 0.978292 0.029367
vt 0.978292 0.006155
vt 0.978292 0.483334
vt 0.511896 0.029367
vt 0.511896 0.483334
vt 0.511896 0.006155
vt -0.239641 0.250084
vt -0.245823 0.239059
vt -0.238068 0.245256
vt -0.232303 0.256964
vt -0.238068 0.032764
vt -0.245823 0.038962
vt -0.232303 0.021056
vt -0.239641 0.027936
vt 0.241184 0.029367
vt 0.241184 0.006155
vt 0.241184 0.483334
vt 0.007626 0.029367
vt 0.007626 0.006155
vt 0.007626 0.483334
vt 0.555078 0.604238
vt 0.575183 0.594642
vt 0.569145 0.606497
vt 0.548200 0.616181
vt 0.930401 0.595669
vt 0.949980 0.605201
vt 0.957032 0.616858
vt 0.936005 0.607496
vt 0.939502 0.944512
vt 0.960216 0.935254
vt 0.953359 0.946913
vt 0.933325 0.978287
vt 0.568594 0.943647
vt 0.573856 0.977159
vt 0.547818 0.934552
vt 0.554799 0.945935
vt 0.701343 0.721841
vt 0.808732 0.721841
vt 0.808732 0.826581
vt 0.701343 0.826581
vt 0.460538 0.557431
vt 0.493062 0.572445
vt 0.480540 0.584881
vt 0.459566 0.572778
vt 0.504530 0.595036
vt 0.487911 0.596055
vt 0.079571 0.566309
vt 0.110617 0.556863
vt 0.111269 0.571278
vt 0.090415 0.578822
vt 0.065409 0.586436
vt 0.082191 0.587620
vt 0.070231 0.952440
vt 0.061675 0.929913
vt 0.078830 0.929218
vt 0.086159 0.941724
vt 0.108206 0.986692
vt 0.109758 0.971777
vt 0.460180 0.990803
vt 0.458896 0.975654
vt 0.497702 0.954133
vt 0.481463 0.943730
vt 0.504817 0.931498
vt 0.487904 0.930681
vt 0.455697 0.603964
vt 0.438319 0.592182
vt 0.463093 0.616230
vt 0.131483 0.590157
vt 0.114153 0.597955
vt 0.106907 0.607791
vt 0.104654 0.908875
vt 0.112327 0.920743
vt 0.130997 0.931272
vt 0.438573 0.934506
vt 0.455511 0.922866
vt 0.462376 0.910307
vt 0.445524 0.612225
vt 0.437746 0.606619
vt 0.447099 0.617663
vt 0.132493 0.604787
vt 0.124080 0.605971
vt 0.122538 0.608770
vt 0.120245 0.906952
vt 0.122752 0.911840
vt 0.132568 0.916599
vt 0.437466 0.920020
vt 0.445347 0.914580
vt 0.446945 0.909312
vt 0.433655 0.620839
vt 0.424965 0.618660
vt 0.432479 0.630367
vt 0.145131 0.616999
vt 0.134587 0.614470
vt 0.137903 0.620367
vt 0.134987 0.894230
vt 0.134790 0.902504
vt 0.145784 0.904842
vt 0.424942 0.907821
vt 0.433579 0.906429
vt 0.431742 0.897484
vt 0.926229 0.617330
vt 0.579128 0.616412
vt 0.929623 0.934431
vt 0.578643 0.933636
vt 0.888088 0.651939
vt 0.618636 0.651679
vt 0.890283 0.898859
vt 0.618453 0.898605
vt 0.818208 0.712599
vt 0.691867 0.712599
vt 0.818208 0.835824
vt 0.691867 0.835824
vn -0.4410 -0.3881 0.8093
vn -0.2287 -0.3873 0.8932
vn -0.2448 -0.2143 0.9456
vn -0.4705 -0.2156 0.8557
vn -0.4705 -0.2156 -0.8557
vn -0.2448 -0.2143 -0.9456
vn -0.2287 -0.3873 -0.8932
vn -0.4409 -0.3881 -0.8093
vn -0.0000 -1.0000 -0.0000
vn 0.6707 -0.3624 0.6472
vn 0.8916 -0.2982 0.3407
vn 0.9200 -0.1678 0.3541
vn 0.7078 -0.2023 0.6768
vn -0.8916 -0.2982 0.3407
vn -0.6707 -0.3624 0.6472
vn -0.7079 -0.2023 0.6768
vn -0.9200 -0.1678 0.3541
vn -0.2528 -0.0313 0.9670
vn -0.4847 -0.0342 0.8740
vn -0.7253 -0.0357 0.6875
vn -0.9319 -0.0338 0.3612
vn -0.4847 -0.0342 -0.8740
vn -0.2531 -0.0313 -0.9669
vn 0.9319 -0.0338 0.3612
vn 0.7253 -0.0357 0.6875
vn 0.2448 -0.2143 -0.9456
vn 0.2528 -0.0313 -0.9670
vn 0.4847 -0.0342 -0.8740
vn 0.4705 -0.2156 -0.8557
vn 0.2287 -0.3873 -0.8932
vn 0.4409 -0.3881 -0.8093
vn 0.2448 -0.2143 0.9456
vn 0.2287 -0.3873 0.8932
vn 0.4410 -0.3881 0.8093
vn 0.4705 -0.2156 0.8557
vn 0.2531 -0.0313 0.9669
vn 0.4847 -0.0342 0.8740
vn -0.7078 -0.2023 -0.6768
vn -0.9200 -0.1678 -0.3541
vn -0.9319 -0.0338 -0.3612
vn -0.7253 -0.0357 -0.6875
vn -0.6707 -0.3624 -0.6472
vn -0.8916 -0.2982 -0.3407
vn 0.9200 -0.1678 -0.3541
vn 0.8917 -0.2982 -0.3406
vn 0.6707 -0.3624 -0.6472
vn 0.7078 -0.2023 -0.6768
vn 0.9319 -0.0338 -0.3612
vn 0.7253 -0.0357 -0.6875
vn -0.6228 0.4812 0.6169
vn -0.1624 0.7469 0.6448
vn -0.2486 0.9413 0.2282
vn -0.6713 0.7220 0.1676
vn 0.1624 0.7469 0.6448
vn 0.6228 0.4812 0.6169
vn 0.6713 0.7220 0.1676
vn 0.2487 0.9413 0.2282
vn 0.2486 0.9413 -0.2282
vn 0.6713 0.7220 -0.1676
vn 0.7775 0.4561 -0.4329
vn 0.3277 0.7752 -0.5401
vn -0.2486 0.9413 -0.2282
vn -0.3276 0.7752 -0.5402
vn -0.6713 0.7220 -0.1676
vn -0.7775 0.4560 -0.4330
vn -0.2988 0.9109 0.2846
vn 0.2988 0.9109 0.2846
vn 0.2988 0.9109 -0.2846
vn -0.2988 0.9109 -0.2846
vn -0.4784 -0.7392 0.4740
vn -0.1624 -0.7469 0.6448
vn -0.6713 -0.7220 0.1676
vn 0.1624 -0.7469 0.6448
vn 0.4784 -0.7392 0.4739
vn 0.6713 -0.7220 0.1676
vn 0.6713 -0.7220 -0.1676
vn 0.6101 -0.7158 -0.3398
vn 0.3276 -0.7752 -0.5401
vn -0.3276 -0.7752 -0.5401
vn -0.6101 -0.7158 -0.3398
vn -0.6713 -0.7220 -0.1676
vn -0.4784 -0.7393 0.4739
vn 0.4784 -0.7393 0.4739
vn 0.4784 -0.7393 -0.4739
vn 0.1624 -0.7469 -0.6448
vn -0.1624 -0.7469 -0.6448
vn -0.4784 -0.7393 -0.4739
vn 0.4784 -0.7392 -0.4739
vn -0.4784 -0.7392 -0.4739
vn 0.4026 0.8339 0.3776
vn -0.4026 0.8339 0.3776
vn 0.4026 0.8339 -0.3776
vn -0.4026 0.8339 -0.3776
vn 0.1296 0.9829 0.1311
vn -0.1296 0.9829 0.1311
vn 0.1297 0.9829 -0.1311
vn -0.1296 0.9829 -0.1311
vn 0.2836 0.9189 0.2743
vn -0.2836 0.9189 0.2743
vn 0.2836 0.9189 -0.2743
vn -0.2836 0.9189 -0.2743
usemtl lambert3SG
s 1
f 1/1/1 2/2/2 3/3/3 4/4/4
f 5/5/5 6/6/6 7/7/7 8/8/8
f 9/9/9 10/10/9 2/11/9 1/12/9
f 11/13/10 12/14/11 13/15/12 14/16/13
f 9/17/14 1/1/15 4/4/16 15/18/17
f 4/4/4 3/3/3 16/19/18 17/20/19
f 15/18/17 4/4/16 17/20/20 18/21/21
f 19/22/22 20/23/23 6/6/6 5/5/5
f 14/16/13 13/15/12 21/24/24 22/25/25
f 23/26/26 24/27/27 25/28/28 26/29/29
f 27/30/30 23/26/26 26/29/29 28/31/31
f 29/32/9 30/33/9 12/34/9 11/35/9
f 31/36/32 29/37/33 11/13/34 14/16/35
f 32/38/36 31/36/32 14/16/35 22/25/37
f 6/6/6 20/23/23 24/27/27 23/26/26
f 7/7/7 6/6/6 23/26/26 27/30/30
f 2/11/9 10/10/9 30/33/9 29/32/9
f 3/3/3 2/2/2 29/37/33 31/36/32
f 16/19/18 3/3/3 31/36/32 32/38/36
f 5/5/38 33/39/39 34/40/40 19/22/41
f 8/8/42 35/41/43 33/39/39 5/5/38
f 8/42/9 7/43/9 36/44/9 35/45/9
f 37/46/9 36/44/9 7/43/9 27/47/9
f 38/48/9 37/46/9 27/47/9 28/49/9
f 39/50/44 38/51/45 28/31/46 26/29/47
f 40/52/48 39/50/44 26/29/47 25/28/49
f 33/39/39 15/18/17 18/21/21 34/40/40
f 35/41/43 9/17/14 15/18/17 33/39/39
f 35/45/9 36/44/9 10/10/9 9/9/9
f 30/33/9 10/10/9 36/44/9 37/46/9
f 12/34/9 30/33/9 37/46/9 38/48/9
f 13/53/12 12/54/11 38/51/45 39/50/44
f 21/55/24 13/53/12 39/50/44 40/52/48
f 41/56/50 42/57/51 43/58/52 44/59/53
f 45/60/54 46/61/55 47/62/56 48/63/57
f 42/57/51 45/60/54 48/63/57 43/58/52
f 49/64/58 50/65/59 51/66/60 52/67/61
f 53/68/62 49/64/58 52/67/61 54/69/63
f 55/70/64 53/68/62 54/69/63 56/71/65
f 48/63/57 47/62/56 50/65/59 49/64/58
f 57/72/66 58/73/67 59/74/68 60/75/69
f 44/59/53 43/58/52 53/68/62 55/70/64
f 42/76/51 41/77/50 61/78/70 62/79/71
f 41/77/50 44/80/53 63/81/72 61/78/70
f 46/82/55 45/83/54 64/84/73 65/85/74
f 47/86/56 46/82/55 65/85/74 66/87/75
f 45/83/54 42/76/51 62/79/71 64/84/73
f 51/88/60 50/89/59 67/90/76 68/91/77
f 52/92/61 51/88/60 68/91/77 69/93/78
f 54/94/63 52/92/61 69/93/78 70/95/79
f 56/96/65 54/94/63 70/95/79 71/97/80
f 55/98/64 56/96/65 71/97/80 72/99/81
f 50/89/59 47/86/56 66/87/75 67/90/76
f 44/80/53 55/98/64 72/99/81 63/81/72
f 62/79/71 61/78/70 73/100/82 74/101/71
f 61/78/70 63/81/72 75/102/72 73/100/82
f 65/85/74 64/84/73 76/103/73 77/104/83
f 66/87/75 65/85/74 77/104/83 78/105/75
f 64/84/73 62/79/71 74/101/71 76/103/73
f 68/91/77 67/90/76 79/106/76 80/107/84
f 69/93/78 68/91/77 80/107/84 81/108/85
f 70/95/79 69/93/78 81/108/85 82/109/86
f 71/97/80 70/95/79 82/109/86 83/110/87
f 72/99/81 71/97/80 83/110/87 84/111/81
f 67/90/76 66/87/75 78/105/75 79/106/76
f 63/81/72 72/99/81 84/111/81 75/102/72
f 74/101/71 73/100/82 85/112/70 86/113/71
f 73/100/82 75/102/72 87/114/72 85/112/70
f 77/104/83 76/103/73 88/115/73 89/116/74
f 78/105/75 77/104/83 89/116/74 90/117/75
f 76/103/73 74/101/71 86/113/71 88/115/73
f 80/107/84 79/106/76 91/118/76 92/119/88
f 81/108/85 80/107/84 92/119/88 93/120/85
f 82/109/86 81/108/85 93/120/85 94/121/86
f 83/110/87 82/109/86 94/121/86 95/122/89
f 84/111/81 83/110/87 95/122/89 96/123/81
f 79/106/76 78/105/75 90/117/75 91/118/76
f 75/102/72 84/111/81 96/123/81 87/114/72
f 86/113/71 85/112/70 97/124/9 98/125/9
f 85/112/70 87/114/72 99/126/9 97/124/9
f 89/116/74 88/115/73 100/127/9 101/128/9
f 90/117/75 89/116/74 101/128/9 102/129/9
f 88/115/73 86/113/71 98/125/9 100/127/9
f 92/119/88 91/118/76 103/130/9 104/131/9
f 93/120/85 92/119/88 104/131/9 105/132/9
f 94/121/86 93/120/85 105/132/9 106/133/9
f 95/122/89 94/121/86 106/133/9 107/134/9
f 96/123/81 95/122/89 107/134/9 108/135/9
f 91/118/76 90/117/75 102/129/9 103/130/9
f 87/114/72 96/123/81 108/135/9 99/126/9
f 43/58/52 48/63/57 109/136/90 110/137/91
f 48/63/57 49/64/58 111/138/92 109/136/90
f 49/64/58 53/68/62 112/139/93 111/138/92
f 53/68/62 43/58/52 110/137/91 112/139/93
f 110/137/91 109/136/90 113/140/94 114/141/95
f 109/136/90 111/138/92 115/142/96 113/140/94
f 111/138/92 112/139/93 116/143/97 115/142/96
f 112/139/93 110/137/91 114/141/95 116/143/97
f 114/141/95 113/140/94 117/144/98 118/145/99
f 113/140/94 115/142/96 119/146/100 117/144/98
f 115/142/96 116/143/97 120/147/101 119/146/100
f 116/143/97 114/141/95 118/145/99 120/147/101
f 118/145/99 117/144/98 58/73/67 57/72/66
f 117/144/98 119/146/100 59/74/68 58/73/67
f 119/146/100 120/147/101 60/75/69 59/74/68
f 120/147/101 118/145/99 57/72/66 60/75/69
